<svg width="36" height="36" viewBox="0 0 36 36" fill="none" xmlns="http://www.w3.org/2000/svg">
<path d="M28.6798 35H7.32019C6.59141 35 6 34.4011 6 33.6632V5.81021C6 5.07225 6.59141 4.47339 7.32019 4.47339H28.6798C29.4086 4.47339 30 5.07225 30 5.81021V33.6632C30 34.4011 29.4086 35 28.6798 35Z" fill="#FFC043"/>
<path d="M7.6445 33.3348V6.13477H28.3555V28.2L23.2884 33.3348H7.6445Z" fill="white"/>
<path d="M23.8188 4.43091V7.38659H12.4483V4.43091H13.5663C14.1081 4.43091 14.5584 4.04841 14.7072 3.51909C15.1154 2.0625 16.4356 1 18 1C19.5644 1 20.8846 2.0625 21.2929 3.51909C21.4417 4.04841 21.8919 4.43091 22.4337 4.43091H23.8188Z" fill="black"/>
<path d="M11.1625 16.7057C11.801 16.7057 12.3186 16.1816 12.3186 15.5351C12.3186 14.8885 11.801 14.3644 11.1625 14.3644C10.524 14.3644 10.0063 14.8885 10.0063 15.5351C10.0063 16.1816 10.524 16.7057 11.1625 16.7057Z" fill="black"/>
<path d="M11.1625 21.1876C11.801 21.1876 12.3186 20.6634 12.3186 20.0169C12.3186 19.3703 11.801 18.8462 11.1625 18.8462C10.524 18.8462 10.0063 19.3703 10.0063 20.0169C10.0063 20.6634 10.524 21.1876 11.1625 21.1876Z" fill="black"/>
<path d="M11.1625 25.6653C11.801 25.6653 12.3186 25.1412 12.3186 24.4947C12.3186 23.8481 11.801 23.324 11.1625 23.324C10.524 23.324 10.0063 23.8481 10.0063 24.4947C10.0063 25.1412 10.524 25.6653 11.1625 25.6653Z" fill="black"/>
<path d="M18 4.43094C18.4278 4.43094 18.7746 4.07979 18.7746 3.64662C18.7746 3.21346 18.4278 2.8623 18 2.8623C17.5722 2.8623 17.2254 3.21346 17.2254 3.64662C17.2254 4.07979 17.5722 4.43094 18 4.43094Z" fill="white"/>
<path d="M23.2884 28.2H28.3555L23.2884 33.3347V28.2Z" fill="#FFE3AC"/>
<path d="M25.9593 14.7623H15.6572V16.3078H25.9593V14.7623Z" fill="#FFE3AC"/>
<path d="M25.9593 19.2443H15.6572V20.7897H25.9593V19.2443Z" fill="#FFE3AC"/>
<path d="M25.9593 23.6949H15.6572V25.2404H25.9593V23.6949Z" fill="#FFE3AC"/>
<path d="M20.3886 28.2H10.0293V29.7454H20.3886V28.2Z" fill="#FFE3AC"/>
<path d="M25.9593 10.2843H10.0293V11.8298H25.9593V10.2843Z" fill="#FFE3AC"/>
</svg>
