<svg width="36" height="36" viewBox="0 0 36 36" fill="none" xmlns="http://www.w3.org/2000/svg">
<path d="M35 7.89163V23.9311C35 24.9557 34.1886 25.8227 33.1454 25.8227H6.60228C5.59774 25.8227 4.74774 24.9952 4.74774 23.9311V7.89163C4.74774 6.867 5.5591 6 6.60228 6H33.1454C34.15 6.03941 35 6.867 35 7.89163Z" fill="black"/>
<path d="M35 7.734V7.89163C35 6.867 34.1886 6 33.1455 6H33.3C34.2273 6.03941 35 6.78818 35 7.734Z" fill="black"/>
<path d="M35 23.9312V24.0888C35 25.0346 34.2273 25.8228 33.3 25.8228H33.1455C34.15 25.8228 35 24.9952 35 23.9312Z" fill="black"/>
<path d="M31.2522 25.8226V12.0689C31.2522 11.0442 30.4409 10.1772 29.3977 10.1772H2.85454C1.84999 10.1772 1 11.0048 1 12.0689V25.8226H31.2522Z" fill="#FFC043"/>
<path d="M30.9818 10.9656C30.8659 10.7685 30.7113 10.6109 30.5181 10.4927C30.6727 10.6109 30.8272 10.7685 30.9818 10.9656Z" fill="#276EF1"/>
<path d="M27.3114 17.2314H16.9568V18.8078H27.3114V17.2314Z" fill="#FFE3AC"/>
<path d="M22.1341 20.4238H16.9568V22.0002H22.1341V20.4238Z" fill="#FFE3AC"/>
<path d="M27.3114 14.0396H16.9568V15.6159H27.3114V14.0396Z" fill="#FFE3AC"/>
<path d="M1 25.8228V28.1085C1 29.1331 1.81136 30.0001 2.85454 30.0001H29.3977C30.4023 30.0001 31.2522 29.1725 31.2522 28.1085V25.8228H1Z" fill="#FFE3AC"/>
<path d="M9.22955 17.5865C10.4032 17.5865 11.3546 16.616 11.3546 15.419C11.3546 14.2219 10.4032 13.2515 9.22955 13.2515C8.05595 13.2515 7.10455 14.2219 7.10455 15.419C7.10455 16.616 8.05595 17.5865 9.22955 17.5865Z" fill="white"/>
<path d="M12.7068 21.9998H5.75229V20.7387C5.75229 19.4776 6.75684 18.4136 8.03184 18.4136H10.4659C11.7023 18.4136 12.7455 19.4382 12.7455 20.7387V21.9998H12.7068Z" fill="white"/>
</svg>
