<svg width="36" height="36" viewBox="0 0 36 36" fill="none" xmlns="http://www.w3.org/2000/svg">
<path d="M9.55804 31.0334V33.1382L13.7943 35.0001H28.8248C29.8839 35.0001 30.6986 34.1501 30.6986 33.1382V31.0334H9.55804Z" fill="black"/>
<path d="M30.6983 4.96667V2.8619C30.6983 1.80952 29.8429 1 28.8246 1H11.4722C10.4132 1 9.59851 1.85 9.59851 2.8619V4.96667H30.6983Z" fill="black"/>
<path d="M30.6986 4.96655H9.55804V31.0332H30.6986V4.96655Z" fill="white"/>
<path d="M18.3971 21.2381H16.7678V13.1833C16.7678 11.3619 18.275 9.86426 20.1079 9.86426C21.9409 9.86426 23.4481 11.3619 23.4481 13.1833V13.8309H21.8187V13.1833C21.8187 12.2524 21.0448 11.4833 20.1079 11.4833C19.1711 11.4833 18.3971 12.2524 18.3971 13.1833V21.2381Z" fill="#FFC043"/>
<path d="M20.108 26.7832C23.3249 26.7832 25.9328 24.1918 25.9328 20.9951C25.9328 17.7984 23.3249 15.207 20.108 15.207C16.891 15.207 14.2831 17.7984 14.2831 20.9951C14.2831 24.1918 16.891 26.7832 20.108 26.7832Z" fill="#FFE3AC"/>
<path d="M18.723 23.1L19.3747 21.1167C19.0489 20.8738 18.8045 20.5095 18.8045 20.0643C18.8045 19.3357 19.3748 18.769 20.1079 18.769C20.8411 18.769 21.4114 19.3357 21.4114 20.0643C21.4114 20.5095 21.2077 20.8738 20.8411 21.1167L21.4929 23.1H18.723Z" fill="black"/>
<path d="M20.1079 34.0691C20.6478 34.0691 21.0855 33.6342 21.0855 33.0976C21.0855 32.5611 20.6478 32.1262 20.1079 32.1262C19.568 32.1262 19.1303 32.5611 19.1303 33.0976C19.1303 33.6342 19.568 34.0691 20.1079 34.0691Z" fill="#FFE3AC"/>
<path d="M32.3279 13.6691C31.4318 14.5596 29.9654 14.5596 29.0693 13.6691C28.1731 12.7787 28.1731 11.3215 29.0693 10.431C29.9654 9.54056 31.4318 9.54056 32.3279 10.431C33.224 11.362 33.224 12.7787 32.3279 13.6691Z" fill="#FFC043"/>
<path d="M32.3279 18.2429C31.4318 19.1333 29.9654 19.1333 29.0693 18.2429C28.1731 17.3524 28.1731 15.8952 29.0693 15.0048C29.9654 14.1143 31.4318 14.1143 32.3279 15.0048C33.224 15.8952 33.224 17.3524 32.3279 18.2429Z" fill="#FFC043"/>
<path d="M32.3279 22.8168C31.4318 23.7073 29.9654 23.7073 29.0693 22.8168C28.1731 21.9264 28.1731 20.4692 29.0693 19.5787C29.9654 18.6883 31.4318 18.6883 32.3279 19.5787C33.224 20.4692 33.224 21.9264 32.3279 22.8168Z" fill="#FFC043"/>
<path d="M32.3279 27.35C31.4318 28.2405 29.9654 28.2405 29.0693 27.35C28.1731 26.4596 28.1731 25.0024 29.0693 24.1119C29.9654 23.2215 31.4318 23.2215 32.3279 24.1119C33.224 25.0429 33.224 26.4596 32.3279 27.35Z" fill="#FFC043"/>
<path d="M13.7943 28.9286V35H3V20.6714C3 19.0119 3.52952 17.3929 4.50712 16.0571L9.27291 9.58095C9.55804 9.17619 10.1283 9.09523 10.5356 9.41904C12.002 10.5524 12.4094 12.6167 11.5132 14.2357L10.0468 16.9071V23.0595L10.2098 23.1405C11.3096 23.7071 12.165 24.5571 12.8167 25.5286C13.4684 26.5405 13.7943 27.7143 13.7943 28.9286Z" fill="#FFC043"/>
</svg>
