<svg width="36" height="36" viewBox="0 0 36 36" fill="none" xmlns="http://www.w3.org/2000/svg">
<path d="M8 31.0501V33.1412C8 34.1868 8.81031 35 9.76795 35H26.232C27.2265 35 28 34.1481 28 33.1412V31.0501H8Z" fill="black"/>
<path d="M28 4.94987V2.85877C28 1.81321 27.1897 1 26.232 1H9.76795C8.77348 1 8 1.85193 8 2.85877V4.94987H28Z" fill="black"/>
<path d="M28 4.94978H8V31.0499H28V4.94978Z" fill="#FFC043"/>
<path d="M21.8495 19.5096L18.019 23.5369L14.1884 19.5096C12.8256 18.0768 12.3468 16.0631 12.7151 14.2431C12.9361 13.1975 13.4149 12.2294 14.1884 11.4162C15.6617 9.86724 17.798 9.40256 19.6764 10.0221C20.4867 10.2932 21.2234 10.7579 21.8864 11.4162C23.9858 13.6622 23.949 17.2636 21.8495 19.5096Z" fill="white"/>
<path d="M17.9822 34.1477C18.4908 34.1477 18.9031 33.7143 18.9031 33.1796C18.9031 32.645 18.4908 32.2115 17.9822 32.2115C17.4737 32.2115 17.0614 32.645 17.0614 33.1796C17.0614 33.7143 17.4737 34.1477 17.9822 34.1477Z" fill="#FFE3AC"/>
<path d="M19.4187 16.955C18.6452 17.7682 17.3929 17.7682 16.5826 16.955C15.8091 16.1417 15.8091 14.8251 16.5826 13.9732C17.3561 13.16 18.6084 13.16 19.4187 13.9732C20.1922 14.7864 20.1922 16.1417 19.4187 16.955Z" fill="#FFC043"/>
</svg>
