<svg width="36" height="36" viewBox="0 0 36 36" fill="none" xmlns="http://www.w3.org/2000/svg">
<path d="M9.54309 31.0201V33.1065C9.54309 34.1497 10.3999 34.961 11.4126 34.961H28.8221C29.8737 34.961 30.6916 34.111 30.6916 33.1065V31.0201H9.54309Z" fill="black"/>
<path d="M30.732 4.94088V2.85453C30.732 1.81135 29.8752 1 28.8625 1H11.453C10.4014 1 9.5835 1.84999 9.5835 2.85453V4.94088H30.732Z" fill="black"/>
<path d="M30.6916 4.94078H9.54309V30.9815H30.6916V4.94078Z" fill="#FFC043"/>
<path d="M20.137 34.0725C20.6747 34.0725 21.1107 33.6401 21.1107 33.1066C21.1107 32.5732 20.6747 32.1407 20.137 32.1407C19.5992 32.1407 19.1633 32.5732 19.1633 33.1066C19.1633 33.6401 19.5992 34.0725 20.137 34.0725Z" fill="white"/>
<path d="M32.3281 13.6726C31.4323 14.5612 29.9913 14.5612 29.0955 13.6726C28.1997 12.7839 28.1997 11.3544 29.0955 10.4658C29.9913 9.57714 31.4323 9.57714 32.3281 10.4658C33.2239 11.3544 33.2239 12.7839 32.3281 13.6726Z" fill="#FFE3AC"/>
<path d="M32.3282 18.2327C31.4324 19.1213 29.9913 19.1213 29.0955 18.2327C28.1997 17.3441 28.1997 15.9145 29.0955 15.0259C29.9913 14.1373 31.4324 14.1373 32.3282 15.0259C33.224 15.9145 33.224 17.3441 32.3282 18.2327Z" fill="#FFE3AC"/>
<path d="M32.3282 22.7919C31.4324 23.6805 29.9913 23.6805 29.0955 22.7919C28.1997 21.9033 28.1997 20.4737 29.0955 19.5851C29.9913 18.6965 31.4324 18.6965 32.3282 19.5851C33.224 20.4737 33.224 21.9033 32.3282 22.7919Z" fill="#FFE3AC"/>
<path d="M32.3282 27.3511C31.4324 28.2397 29.9913 28.2397 29.0955 27.3511C28.1997 26.4624 28.1997 25.0329 29.0955 24.1443C29.9913 23.2556 31.4324 23.2556 32.3282 24.1443C33.224 25.0329 33.224 26.4624 32.3282 27.3511Z" fill="#FFE3AC"/>
<path d="M13.7885 28.9341V35H3V20.666C3 19.0046 3.54526 17.3819 4.51895 16.0683L9.30949 9.57741C9.62107 9.19105 10.1663 9.07514 10.5948 9.38423C12.0748 10.5433 12.5032 12.5524 11.6074 14.2137L10.1274 16.8796V23.0228L10.2832 23.1001C11.3737 23.6796 12.2695 24.491 12.8927 25.4955C13.4379 26.5387 13.7885 27.6978 13.7885 28.9341Z" fill="#FFE3AC"/>
<path d="M25.2779 19.5452L20.1369 26.1906L14.9958 19.5452H18.0337V9.77025H22.24V19.5452H25.2779Z" fill="white"/>
</svg>
