<svg width="36" height="36" viewBox="0 0 36 36" fill="none" xmlns="http://www.w3.org/2000/svg">
<path d="M7.47208 31.0282V33.13C7.47208 34.1655 8.31256 35 9.34671 35H26.6444C27.6824 35 28.519 34.1616 28.519 33.13V31.0282H7.47208Z" fill="#FFC043"/>
<path d="M28.5229 4.97182V2.87C28.5229 1.83455 27.6824 1 26.6483 1H9.35058C8.31256 1 7.47208 1.83841 7.47208 2.87V4.97182H28.5229Z" fill="#FFC043"/>
<path d="M28.5229 4.9718H7.47208V31.0282H28.5229V4.9718Z" fill="#FFE3AC"/>
<path d="M17.9994 34.1036C18.5428 34.1036 18.9832 33.6642 18.9832 33.1222C18.9832 32.5802 18.5428 32.1409 17.9994 32.1409C17.4561 32.1409 17.0157 32.5802 17.0157 33.1222C17.0157 33.6642 17.4561 34.1036 17.9994 34.1036Z" fill="white"/>
<path d="M17.7903 27.1877V18.8075L28.5229 8.10135V5.91453L17.7903 16.6207V4.9718H16.241V7.38657H7.47208V8.93203H16.241V18.1661L7.47208 26.9134V28.7332H28.5229V27.1877H17.7903ZM16.241 27.1877H9.38931L16.241 20.3529V27.1877Z" fill="white"/>
<path d="M28.856 15.508C27.33 13.9857 24.8511 13.9857 23.3251 15.508C22.0469 16.783 21.8416 18.7225 22.7054 20.2139L22.7015 20.2178L26.0905 26.0402L29.4796 20.2178L29.4757 20.2139C30.3394 18.7225 30.138 16.783 28.856 15.508Z" fill="black"/>
<path d="M26.0906 19.4643C26.7537 19.4643 27.2912 18.9281 27.2912 18.2666C27.2912 17.6051 26.7537 17.0688 26.0906 17.0688C25.4274 17.0688 24.8899 17.6051 24.8899 18.2666C24.8899 18.9281 25.4274 19.4643 26.0906 19.4643Z" fill="#FFE3AC"/>
<path d="M12.6738 11.4164C11.1477 9.89409 8.6689 9.89409 7.14285 11.4164C5.8647 12.6914 5.65942 14.6309 6.52314 16.1223L6.51927 16.1261L9.90832 21.9486L13.2974 16.1261L13.2935 16.1223C14.1533 14.6309 13.9519 12.6914 12.6738 11.4164Z" fill="black"/>
<path d="M9.90446 15.3727C10.5676 15.3727 11.1051 14.8365 11.1051 14.175C11.1051 13.5135 10.5676 12.9773 9.90446 12.9773C9.24133 12.9773 8.70377 13.5135 8.70377 14.175C8.70377 14.8365 9.24133 15.3727 9.90446 15.3727Z" fill="#FFE3AC"/>
</svg>
