<?xml version="1.0" encoding="UTF-8"?>
<svg xmlns="http://www.w3.org/2000/svg" fill="none" viewBox="0 0 700 314" width="640" height="287.08571428571"><g clip-path="url(#clip0_2414_63575)"><path fill="#D4E2FC" d="M0 0h700v314H0z"/><path fill="#8FA3AD" d="M703.487 64.663V26.221h-21.515l-16.576 23.146v15.296h-20.331v53.501h-7.489V44.797h-7.677V26.214H618.12v-10.29h-13.077v10.297h-5.981v73.016h-2.994l-12.044 18.927h-6.04V92.503l-9.549-3.097V73.944a7.478 7.478 0 0 1-7.412-6.51l-3.617-27.837-3.617 27.836a7.472 7.472 0 0 1-7.409 6.511v15.462l-9.553 3.097v25.661h-.344v30.796h-8.779v-30.796h-8.947v-66.76h-3.751v-9.45h-8.094v9.453h-3.647v66.761h-3.672V76.79h-16.862a52.97 52.97 0 0 0-16.618 33.624v42.672h-22.32v-66.96h-5.069v-23.48h-26.993v23.48h-4.367v86.812h-14.962v-29.856h-.255v-18.101h-32.926v18.101h-22.839v18.831a9.06 9.06 0 0 1-2.655 6.413 9.057 9.057 0 0 1-6.413 2.654v17.984h-26.429v-34.357h-15.004v31.346h-13.737v-42.454c-5.375.488-9.13 4.373-15.861 11.7v26.215h-31.69v16.277l-22.712 9.292v-21.405l-25.328-7.915v8.314h-7.571v-35.5h-23.366v56.506h-45.183l-50.518 24.883-5.712 6.845-63.188 19.181-25.937 89.394h11.298a3.79 3.79 0 0 1 3.497 2.337c.19.459.288.952.288 1.449v6.951h733.735V64.663h-.409z"/><path fill="#EEE" d="M78.81 217.788L5.178 301.642v50.046h685.773l-7.008-14.015-62.649-108.184c-23.735-29.339-61.63-36.401-80.829-36.264H178.355c-62.563-1.422-82.674 4.738-99.546 24.563z"/><path fill="#2D2622" d="M639.088 339.996H277.353a14.028 14.028 0 0 1-13.455-17.975l1.369-4.67 17.439-59.364 3.815-12.992a50.36 50.36 0 0 1 48.327-36.18h210.324a78.703 78.703 0 0 1 68.212 39.51l39.211 68.352c.129.223.251.449.363.674 5.267 10.26-2.162 22.645-13.87 22.645z"/><path fill="#B4C9D3" d="M639.077 340.001H290.67l21.434-73.015a50.37 50.37 0 0 1 48.327-36.183h210.336a78.573 78.573 0 0 1 37.223 9.366 77.56 77.56 0 0 1 5.383 8.155l39.212 68.352c5.956 10.388-1.54 23.325-13.508 23.325z"/><path fill="#5B91F4" d="M305.362 289.971l-14.682 50.017c-1.964-3.215-25.414-22.645-25.414-22.645l17.438-59.349 22.658 31.977z"/><path fill="#99644C" d="M302.522 285.97l-12.206 39.123 37.172-2.086-24.966-37.037z"/><path fill="#fff" d="M293.256 272.927l-15.478 55.034 12.883 12.044 14.685-50.02-12.09-17.058z"/><path fill="#276EF1" d="M274.476 285.972l10.915 14.987-4.611 16.393h-15.514l9.21-31.38z"/><path fill="#D4E2FC" d="M285.379 300.968l-4.611 16.392h16.548l-11.937-16.392z"/><path fill="#99644C" d="M428.89 289.52c-.653.168-6.1 9.476-6.1 9.476v3.221c-.219 10.467-11.339 15.697-11.339 15.697s-11.284.049-20.397-2.318c-5.453-5.239-9.848-11.497-12.87-14.62a88.502 88.502 0 0 1-.424-12.062c.162-6.497.772-11.794.772-11.794l-7.195-8.479 1.098-6.91c.28-1.758.098-3.558-.528-5.225l-1.006-2.69c-1.461-4.376-.207-6.856 1.186-8.191a9.075 9.075 0 0 0 2.614-4.313 10.19 10.19 0 0 1 .723-1.988c2.784-5.743 10.171-7.466 15.368-3.767 0 0 7.82 5.215 7.929 5.13 3.91-2.763 9.284-2.086 12.566 1.388l.051.054 3.05 3.261a35.812 35.812 0 0 0 11.205 8.13 22.366 22.366 0 0 1 8.54 6.838c6.969 11.553-4.587 29.001-5.243 29.162z"/><path fill="#744C3A" d="M428.889 289.524c-.653.168-6.1 9.476-6.1 9.476v3.221c-.219 10.466-11.339 15.697-11.339 15.697s-22.568.345-31.693-2.022c-5.453-5.24-8.403-8.747-11.425-11.87-2.574-2.659 8.116-10.064 9.427-15.109 1.955-7.514 4.959-16.511-.769-23.538-9.564-11.736 8.845-10.915 4.743-19.147-4.102-8.231 4.831-7.515 4.831-7.515 4.654.44 9.204 3.05 12.037 5.014a4.269 4.269 0 0 0 5.548-.588l.04-.043a6.24 6.24 0 0 1 1.829-.933 6.955 6.955 0 0 1 7.195 1.958l1.18 1.268a35.799 35.799 0 0 0 11.205 8.131 22.366 22.366 0 0 1 8.54 6.838c6.962 11.553-4.593 29.001-5.249 29.162z"/><path fill="#FABDA5" d="M387.24 310.061s-6.551-2.66-10.156-10.37c-.72-1.525-1.22-5.767 3.068-6.773 0 0 4.526-2.26 5.249-10.065a6.492 6.492 0 0 0-.57-3.37c-.487-1.052-1.152-2.378-2.107-3.036-1.256-.848-2.434-1.048-3.666-.788a1.793 1.793 0 0 1-1.979-.26l-5.761-6.781-.736 4.76a8.629 8.629 0 0 1-1.879 4.23l-1.897 2.299a12.94 12.94 0 0 0-2.745 5.953c-.955 5.402-2.095 15.704 1.83 20.986 5.435 7.356 21.349 3.215 21.349 3.215z"/><path fill="#F1998E" d="M377.143 290.197c1.787-.592 5.898-2.586 5.563-8.341a3.736 3.736 0 0 0-.747-2.053c-.955-1.247-2.919-2.79-5.621.336l-.055.1a3.122 3.122 0 0 0-.244 2.285c.229.854.265 2.052-.857 2.879-1.735 1.275-2.492 4.401.147 4.937a3.53 3.53 0 0 0 1.814-.143z"/><path fill="#FABDA5" d="M592.41 276.257s6.798-1.413 5.209 9.167c0 0-1.504 11.992-6.441 7.762l1.232-16.929z"/><path fill="#F1998E" d="M592.523 279.293s7.624 2.998 1.647 14.792h-3.4l1.753-14.792z"/><path fill="#BCD69D" d="M585.89 309.272l2.394-.915a76.785 76.785 0 0 0 24.636-15.425l16.969-15.805 23.051 40.227-25.561 17.955s-42.069 9.988-41.489-26.037z"/><path fill="#5A0A00" d="M594.707 284.68a1.04 1.04 0 0 0 0-.079 55.974 55.974 0 0 0-.717-6.219 73.164 73.164 0 0 0-1.22-5.739c0-.04-.018-.083-.031-.126a7.197 7.197 0 0 1-.091-.35l-.253-.952s-3.703-26.091-30.498-19.918c-14.435 3.324-18.558 14.334-20.065 20.87-.027.116-.052.238-.082.357v.07c-.446 1.949-.863 3.907-1.583 5.794a14.822 14.822 0 0 1-4.34 6.213l-.095.079a19.628 19.628 0 0 1-4.187 2.653c-8.472 4.072-19.824 8.933-30.583 11.806-6.585 1.76-15.502 3.849-21.318 12.364l7.774-3.263c-3.572 3.836-5.795 8.539-5.795 14.557 0 10.305 77.605 3.964 77.605 3.964l26.735-12.772a14.035 14.035 0 0 0 7.871-10.867c.634-5.262.947-10.558.937-15.859a42.78 42.78 0 0 0-.064-2.583z"/><path fill="#F1998E" d="M686.374 195.365l-2.937-16.316a1.393 1.393 0 0 0-1.107-1.119 1.395 1.395 0 0 0-1.446.622c-.692 1.092-1.259 2.745-1.143 5.151l1.354 13.02 5.279-1.358z"/><path fill="#F1998E" d="M682.996 196.725l2.763-16.029a6.59 6.59 0 0 1 1.406-3.108 7.11 7.11 0 0 1 .198-.226 1.405 1.405 0 0 1 1.533-.339 1.397 1.397 0 0 1 .88 1.3v12.062l-6.78 6.34z"/><path fill="#F1998E" d="M692.752 187.777l4.971-9.705a.946.946 0 0 0-1.015-1.357c-1.434.278-3.553 1.199-5.582 4.011l-7.051 14.639 8.677-7.588z"/><path fill="#FABDA5" d="M665.985 225.637l-14.999 88.25-21.09-36.766 24.704-58.834a12.72 12.72 0 0 0 .811-6.941c-.518-3.233-.729-8.149 1.815-11.37 4.068-5.154 7.319-5.154 13.559-17.902 0 0 2.867-4.203 5.231-2.025a3.08 3.08 0 0 1 .707 3.428l-4.611 11.339a1.518 1.518 0 0 0 .319 1.646 1.528 1.528 0 0 0 1.639.358l8.109-3.09 12.477-11.113s2.159-1.583 4.065-1.394a1.44 1.44 0 0 1 1.164.874 1.436 1.436 0 0 1-.2 1.441l-9.912 12.641-9.82 13.325a10.076 10.076 0 0 1-3.986 3.22 17.353 17.353 0 0 0-9.982 12.913z"/><path fill="#E0ECD2" d="M652.946 317.355l-23.056-40.236-11.98 11.156 23.121 40.627 11.915-11.547z"/><path fill="#2D2622" d="M639.088 340.002H277.353a14.042 14.042 0 0 1-11.224-5.622 14.032 14.032 0 0 1-2.231-12.354l1.369-4.669h58.068a8.615 8.615 0 0 0 7.649-4.66 12.748 12.748 0 0 1 11.327-6.902h58.919a12.745 12.745 0 0 1 11.327 6.902 8.625 8.625 0 0 0 7.655 4.663h106.616a8.607 8.607 0 0 0 7.652-4.663 12.75 12.75 0 0 1 11.33-6.902h58.919a12.748 12.748 0 0 1 11.321 6.899 8.615 8.615 0 0 0 7.655 4.663h29.248c5.273 10.259-2.157 22.645-13.865 22.645z"/><path fill="#276EF1" d="M220.178 128.413c-2.717-2.059-7.319-3.724-14.861-2.296a37.801 37.801 0 0 0-11.507 4.251l-21.16 11.894 25.009 18.202 23.145-24.246a5.24 5.24 0 0 0-.626-7.805z"/><path fill="#99644C" d="M204.317 199.396a2.24 2.24 0 0 1-.509.421c-1.421.848-7.774-1.83-9.329-1.016a1.184 1.184 0 0 0-.558 1.488l1.009 2.578 5.218 13.33h-39.342l.186-2.299a27.62 27.62 0 0 0-3.2-15.307l-9.384-17.473 46.086-29.299 5.401 9.869a10.792 10.792 0 0 1 1.086 7.432 7.881 7.881 0 0 0-.171 1.599 5.552 5.552 0 0 0 1.278 3.492c.366.448 2.44 2.808 2.711 4.596.61 3.824-.61 11.65-.106 15.49.091.686.332 1.323.384 1.988 0-.003.259 1.979-.76 3.111z"/><path fill="#744C3A" d="M188.457 193.617c-1.991-1.22 4.392-6.731 7.722-5.524 1.165.424 2.471-1.015 2.565-1.119-.116.159-3.748 7.341.235 9.259 3.184 1.525 4.785 2.702 5.343 3.154a2.24 2.24 0 0 1-.509.421c-1.421.848-9.021 2.69-9.021 2.69s-4.404-7.707-6.335-8.881zM196.709 176.265s-1.622-4.27-3.699-2.477c-2.745 2.376-.961 9.324 3.562 9.873a1.224 1.224 0 0 0 1.122-.427c.281-.354.439-.952-.052-1.934-.982-1.967-.933-2.675-.933-5.035z"/><path fill="#2D2622" d="M26.204 339.914h169.234a26.069 26.069 0 0 0 25.036-18.802l22.528-77.63c4.752-16.417-7.566-32.81-24.66-32.81h-76.608a88.194 88.194 0 0 0-67.377 31.276L13.92 313.49c-8.817 10.44-1.396 26.424 12.285 26.424z"/><path fill="#B4C9D3" d="M48.106 339.999h183.668a6.823 6.823 0 0 0 6.56-4.928l33.698-116.1a6.426 6.426 0 0 0-6.173-8.235H163.651a88.191 88.191 0 0 0-67.377 31.297l-60.438 71.543c-8.817 10.439-1.384 26.423 12.27 26.423z"/><path fill="#5B91F4" d="M266.019 239.378l-19.232 68.221-8.54 28.772a5.069 5.069 0 0 1-4.864 3.632h-91.037l-12.687-96.831a28.698 28.698 0 0 1 6.883-22.651 28.697 28.697 0 0 1 21.566-9.765l2.935-.636s22.188-3.302 36.126-1.078c10.738 1.713 28.034 1.714 28.034 1.714a42.665 42.665 0 0 1 36.138 19.988l4.678 8.634z"/><path fill="#276EF1" d="M161.256 253.67c-1.44 37.775 23.047 86.309 23.047 86.309h-41.947l-7.014-53.624 25.914-32.685z"/><path fill="#5B91F4" d="M165.434 240.041l-24.143 79.027-1.171 3.842c-2.699 6.036-10.674 7.241-18.686 6.246-11.894-1.473-21.55-10.39-23.627-22.034a26.603 26.603 0 0 1 .055-9.626c.34-1.799.85-3.562 1.525-5.264l7.216-17.347 21.043-50.627c2.022-4.529 8.003-8.408 14.804-10.83a18.447 18.447 0 0 1 22.868 9.376 18.443 18.443 0 0 1 1.799 8.756c-.107 3.077-.595 6.041-1.683 8.481z"/><path fill="#C4D4F0" d="M138.315 322.539l-1.171 3.843c-2.7 6.036-10.675 7.24-18.687 6.246-11.894-1.473-21.55-10.391-23.626-22.035a76.836 76.836 0 0 1 .048-9.625c.34-1.799.85-3.562 1.525-5.264l7.216-17.347c4.471-3.44 10.864-3.721 19.687 1.442.006-.015 15.447 22.398 15.008 42.74z"/><path fill="#C4D4F0" d="M94.737 316.938c2.678 6.115 17.317 18.021 28.296 13.269 11.501-4.986 10.562-23.318 7.439-35.454-3.309-12.864-16.061-28.592-32.682-47.997l-33.597-3.912c9.818 23.837 26.454 64.749 30.544 74.094z"/><path fill="#DEDDDD" d="M74.308 268.038L61.73 237.246l2.894-3.306 12.685 30.537-3 3.561z"/><path fill="#110E0C" d="M74.309 268.038l-7.172-17.542 2.82-3.339 7.353 17.32-3.001 3.561z"/><path fill="#fff" d="M141.293 319.058l8.424-27.57s-6.957-31.456-34.305-37.818l-7.765 18.668 33.646 46.72z"/><path fill="#000" d="M141.283 319.061l-1.171 3.843c-2.699 6.035-10.674 7.24-18.686 6.246-11.894-1.474-21.55-10.391-23.627-22.035a76.852 76.852 0 0 1 .05-9.626c.338-1.799.85-3.561 1.524-5.263l7.216-17.348c4.471-3.44 10.863-3.721 19.686 1.443.006-.015 15.448 22.398 15.008 42.74zM160.55 206.168a44.446 44.446 0 0 0 16.042.064c7.155-1.303 13.523-5.49 17.247-11.724 1.201-2.022 2.135-4.248 2.348-6.487 0 0-9.698-6.944-6.578-14.764a3.992 3.992 0 0 1 2.87-2.407 4.003 4.003 0 0 1 3.605 1.022c.03.028 1.219 1.33 1.262 1.361.043.03 4.489-4.45 1.867-12.779l-4.715-8.637-46.925 29.845 12.977 24.506z"/><path fill="#5B91F4" d="M154.745 195.208s20.684.162 43.918-35.762l-5.917-11.565c-5.099-7.929-13.877-12.876-23.313-12.809-5.093.043-10.747 1.525-16.368 5.743-.22.164-.436.332-.65.5-11.665 9.177-14.508 25.71-6.892 38.452l9.222 15.441z"/><path fill="#276EF1" d="M156.064 149.63c1.685-.973 2.467-2.772 1.747-4.019-.72-1.247-2.669-1.47-4.354-.497-1.685.972-2.467 2.772-1.747 4.019.72 1.247 2.67 1.47 4.354.497z"/><path fill="#fff" d="M246.803 307.599l-8.539 28.772a5.074 5.074 0 0 1-4.865 3.632h-3.586l-24.072-73.991c-3.66 14.114-21.629 14.029-21.629 14.029l-3.328-17.155c21.629-7.32 16.686-29.614 16.686-29.614l22.263-2.44 27.07 76.767z"/><path fill="#000" d="M199.479 172.525s2.321.549 3.081-1.317l-1.714.17-1.367 1.147z"/><path fill="#99644C" d="M125.864 326.868c-10.979 4.752-25.618-7.155-28.296-13.269-4.09-9.345-20.903-50.066-30.72-73.903-2.922-7.085-5.222-12.678-6.39-15.515a9.497 9.497 0 0 0-2.488-3.513 30.852 30.852 0 0 1-5.795-6.917l-8.04-13.114-4.357-7.112a4.756 4.756 0 0 1-.61-3.532c.332-1.461 1.22-2.068 2.086-2.3a4.496 4.496 0 0 0 2.98-2.69l.399-.994c1.628-4.623 6.352-1.894 6.352-3.849 0-1.955 2.12-3.586 3.913-3.422 1.794.165 2.77-1.793 2.77-1.793a6.246 6.246 0 0 1 1.372-2.848 3.402 3.402 0 0 1 5.438.61l8.344 14.169 3.05-14.944c.201-1.025.532-2.02.985-2.961 1.888-3.852 4.337-3.66 5.749-3.117a1.595 1.595 0 0 1 .997 1.708l-.832 6.206a83.98 83.98 0 0 0-.61 15.084l.265 5.389a24.03 24.03 0 0 1-.326 5.298c-.128.75-.292 1.492-.491 2.226a13.728 13.728 0 0 0-.098 6.878c.168.671.387 1.329.656 1.967l3.965 9.375a89.719 89.719 0 0 0 14.489 23.431c16.622 19.406 29.373 35.134 32.682 47.998 3.123 12.135 4.062 30.468-7.439 35.454z"/><g clip-path="url(#clip1_2414_63575)"><g clip-path="url(#clip2_2414_63575)"><path fill="#9DCDD6" d="M741.45 0H-260.382v339.879H741.45V0z"/><path fill="#fff" d="M517.184 230.406l-38.797 18.295-11.4 5.376-27.86-8.662-293.25-91.169 23.122 101.521-60.022-18.901-30.798-130.394 214.117-27.38 62.742 26.331-156.622 21.017 195.733 63.84 63.852 20.826 59.183 19.3z"/><path fill="#218EA4" d="M741.454 309.584v30.295h-36.148s-19.687-13.223-41.612-24.217c-29.609-14.852-60.425-27.26-92.219-36.667-8.594-2.54-13.122-4.873-15.08-6.043-.848-.512-1.207-.806-1.207-.806s9.564-2.272 23.088-2.454a2.153 2.153 0 0 0-.079-.052l.507.052c.411-.009.84-.009 1.259-.009 14.416 0 60.521 7.769 60.521 7.769 42.643 9.676 43.789 18.39 97.482 31.3 1.189.277 2.343.555 3.488.832zM585.931 340h-90.689s-50.669-88.29-50.94-88.603a285.981 285.981 0 0 0-5.175-5.982l27.861 8.662 11.399-5.376a251.648 251.648 0 0 0 2.833 3.555l12.553 15.45a21.336 21.336 0 0 0 12.44 7.457c4.904.962 10.429 2.141 14.389 3.581 0 0 58.72 53.617 65.329 61.256z"/><path fill="#D2E8EC" d="M478.386 248.701l-11.399 5.376-27.861-8.662c-5.647-6.373-10.28-11.063-13.733-14.35l-.018-.008c-.647-.33-29.128-14.827-53.046-20.376a1676.9 1676.9 0 0 1-4.022-.936c-18.314-4.248-33.516-11.037-37.267-19.248-.236-.512 32.739-.468 63.109-.217 25.71.208 49.54.572 49.785.876 4.004 5.063 9.546 12.476 14.066 19.95 1.547 2.549 2.972 5.116 4.17 7.595 1.233 2.55 1.547 7.925 1.88 8.515 3.846 7.005 8.68 14.211 14.336 21.485z"/><path fill="#FA9269" d="M415.29 189.804c-19.985-2.02-12.641-27.502-12.641-27.502s5.035-7.179 7.902-27.754c.044-.338.097-.668.132-1.006 3.322-25.014-.7-42.832-.7-42.832l43.631 21.434-.725 6.901-2.063 19.543c-.953 9.035-.743 18.156.717 27.13 1.477 9.095 2.08 18.017 2.08 18.017.49 5.575-18.349 8.089-38.333 6.069z"/><path fill="#C14F29" d="M457.694 205.41a123.837 123.837 0 0 1-.324 3.399 4.956 4.956 0 0 1-3.916 4.291c-36.646 7.674-37.862-8.973-73.171-8.973-3.383 0-6.565-.113-9.546-.313-22.038-1.456-33.508-7.768-37.783-10.751a4.518 4.518 0 0 1-1.905-4.101c.087-.919.218-1.777.402-2.584 2.08-9.095 10.682-10.742 27.642-13.231 1.198-.182 2.439-.364 3.724-.546 22.248-3.26 42.469-16.5 42.783-16.708l-.288.659c-1.617 3.729-1.687 7.96-.061 11.679 4.869 11.168 16.609 11.593 23.918 10.621a18.629 18.629 0 0 0 5.717-1.734c.184-.086.358-.182.533-.277.009 0 .009-.009.018-.009a18.454 18.454 0 0 0 3.042-2.011c8.384-6.772 15.132-7.5 15.132-7.5 1.076 2.584 1.906 5.341 2.544 8.167 2.474 10.804 2.125 22.656 1.539 29.922z"/><path fill="#FF6937" d="M370.737 203.823c-22.038-1.457-33.508-7.769-37.783-10.751a4.518 4.518 0 0 1-1.905-4.101 20.14 20.14 0 0 1 .402-2.584c2.08-9.095 10.682-10.743 27.642-13.231.218.243 9.992 10.959 11.487 25.231.201 1.751.262 3.572.157 5.436zM405.617 155.885s-15.77 12.52-7.133 47.331l5.7 2.185s-4.214-29.332-.053-43.95l1.486-5.566zM457.695 205.41a123.837 123.837 0 0 1-.324 3.399 5.062 5.062 0 0 1-.166.823c-3.121 1.587-7.43 2.965-13.331 3.425-16.794 1.309-29.583-4.743-29.583-4.743s-.026-.979.227-2.679c.796-5.271 4.362-17.436 20.124-28.265l.009-.009c.262-.173.524-.355.787-.529.008 0 .008-.008.017-.008a19.006 19.006 0 0 0 3.042-2.012c8.384-6.772 15.133-7.5 15.133-7.5 1.075 2.584 1.906 5.341 2.544 8.168 2.456 10.812 2.107 22.664 1.521 29.93z"/><path fill="#fff" d="M457.694 205.41a128.314 128.314 0 0 1-.323 3.399 4.956 4.956 0 0 1-3.917 4.291c-36.646 7.674-37.862-8.973-73.17-8.973-3.384 0-6.566-.113-9.547-.312-22.038-1.457-33.508-7.769-37.783-10.752a4.517 4.517 0 0 1-1.905-4.101c.087-.919.218-1.777.402-2.584 0 0 7.972 10.83 39.138 12 1.521.061 3.094.096 4.729.104 27.301.139 24.25 2.931 39.19 7.162 4.267 1.205 10.001 2.532 18.332 3.954 0 0 16.462 2.193 24.854-4.188z"/><path fill="#000" d="M456.175 175.479c-3.846-.329-12.807-.702-21.54 1.891l.008-.009c.027-.026.114-.122.254-.26.184-.087.358-.182.533-.278.009 0 .009-.008.018-.008a18.46 18.46 0 0 0 3.042-2.012c8.384-6.771 15.132-7.5 15.132-7.5 1.084 2.593 1.915 5.35 2.553 8.176z"/><path fill="#E8503D" d="M453.62 112.151l-.725 6.902s-19.844 16.612-42.206 14.488c3.322-25.014-.7-42.831-.7-42.831l43.631 21.441z"/><path fill="#174291" d="M467.012 65.739c-2.474 15.381 1.757 46.482 1.757 46.482-30.667 10.82-63.152-2.775-63.152-2.775L393.736 0h83.39c-2.08 15.771-5.315 36.164-7.658 50.652-1.066 6.564-1.949 11.922-2.456 15.087z"/><path fill="#000" d="M477.123 0c-2.08 15.771-5.315 36.164-7.658 50.652-1.066 6.564-1.949 11.922-2.456 15.087-19.066 40.014-51.324-27.65-66.885-65.739h76.999zM549.59 121.602s-24.88 11.046-31.192 5.896c0 0 5.569-16.942 20.798-23.202 15.22-6.269 10.394 17.306 10.394 17.306z"/><path fill="#FA9269" d="M530.24 113.825s34.452 34.716 44.602 56.765c0 0 5.061 15.173 16.846 15.173 11.784 0 22.519-47.956 22.519-47.956s-25.527-30.624-35.457-52.855c-9.931-22.222-48.51 28.873-48.51 28.873z"/><path fill="#C14F29" d="M632.775 200.753c-19.311 25.083-5.201 42.025-21.54 60.814 0 0-22.283 15.095-33.42 15.095-.332 0-.656 0-.988-.018-.114 0-.227-.008-.341-.008-10.761-.347-22.065-4.769-22.065-4.769s-.227-.572-.446-1.561c-.926-4.109-1.809-15.476 13.445-23.479l8.909-4.058s8.916-9.945 4.825-35.73c-1.862-11.749-4.187-20.358-5.778-26.254-1.906-7.041-2.754-10.205-.534-10.205 0 0 5.796 5.505 9.398 6.945h.009c1.127.451 2.037.494 2.483-.156.944-1.388 5.052-14.15 10.376-25.066 1.154-2.367 2.369-4.648 3.611-6.703 4.327-7.127 9.1-11.592 13.489-7.794 0 0 1.669.901 4.283 2.367 6.216 3.485 17.781 10.17 24.915 15.502a56.225 56.225 0 0 1 2.404 1.89c1.827 1.526 3.112 2.87 3.567 3.902.043.095.078.182.104.278 1.862 5.895 2.605 13.924-16.706 39.008z"/><path fill="#FF6937" d="M576.486 276.637c-10.761-.347-22.065-4.769-22.065-4.769s-.227-.572-.446-1.56c-.926-4.11-1.809-15.477 13.446-23.48l8.908-4.057c-3.148 12.025-2.571 21.676-1.347 28.057a44.42 44.42 0 0 0 1.504 5.809zM615.252 195.153l-1.967 8.02a237.99 237.99 0 0 1-2.911-1.24c-15.01-6.572-26.934-14.74-34.994-21.138-1.906-7.041-2.754-10.205-.534-10.205 0 0 5.796 5.505 9.398 6.945h.009c9.249 6.875 23.184 13.864 28.665 16.508 1.468.711 2.334 1.11 2.334 1.11zM645.812 157.575c-15.788 5.749-25.483 28.188-25.483 28.188s-1.451-.72-3.637-2.679c-3.933-3.521-10.228-11.046-14.625-25.578-.035-.121-.079-.251-.114-.382-1.355-4.56-1.652-8.358-1.241-11.514 4.327-7.127 9.101-11.592 13.489-7.794 0 0 1.67.901 4.284 2.367 6.215 3.485 17.781 10.17 24.914 15.502.883.65 1.687 1.283 2.413 1.89z"/><path fill="#000" d="M618.493 140.174c-4.257 1.977-10.184 6.607-16.426 17.323-.035-.121-.079-.251-.114-.381-1.355-4.561-1.652-8.358-1.241-11.514 4.327-7.128 9.101-11.593 13.489-7.795.009 0 1.678.902 4.292 2.367z"/><path fill="#E8503D" d="M557.734 95.954s-18.577 17.593-16.916 29.072l-10.578-11.202c.009 0 13.174-14.896 27.494-17.87z"/><path fill="#174291" d="M581.555 90.71c-42.093 11.019-63.161 36.779-63.161 36.779-10.648-25.335-29.461-52.577-48.929-76.837C453.624 30.92 437.356 13.153 424.68 0h100.13c5.482 7.396 10.788 15.034 15.176 20.93 1.102 1.483 2.457 3.468 3.996 5.827 6.294 9.659 15.683 25.647 23.507 39.224 7.824 13.57 14.066 24.728 14.066 24.728z"/><path fill="#fff" d="M632.774 200.753c-19.311 25.084-5.202 42.025-21.54 60.814 0 0-22.284 15.095-33.421 15.095-.332 0-.656 0-.988-.017l-.306.104c-.008-.035-.026-.078-.035-.113-10.761-.347-22.065-4.768-22.065-4.768s-.227-.573-.445-1.561c4.038.494 10.717 1.214 16.234 1.361 1.73.044 3.33-.277 4.773-.841 5.708-2.185 9.083-7.864 9.083-7.864 12.955-17.133 19.328-38.991 26.313-61.031.83-2.627 1.67-5.263 2.535-7.89a369.15 369.15 0 0 1 3.724-10.803l.061-.156c7.72-21.069 20.815-26.167 26.716-27.398.874.65 1.687 1.291 2.404 1.89 1.827 1.526 3.112 2.87 3.567 3.901.043.096.078.182.105.278 1.853 5.887 2.596 13.916-16.715 38.999z"/><path fill="#000" d="M632.774 200.755c-19.311 25.083-5.202 42.025-21.54 60.814 0 0-22.284 15.095-33.421 15.095-.332 0-.656 0-.988-.017 22.458-7.856 35.886-57.788 35.886-57.788 6.233-34.482 17.554-44.106 28.875-53.496 3.435-2.853 5.962-3.867 7.798-3.902.043.095.078.182.105.277 1.853 5.905 2.596 13.934-16.715 39.017z"/></g></g></g><defs><clipPath id="clip0_2414_63575"><path fill="#fff" d="M0 0h700v314H0z"/></clipPath><clipPath id="clip1_2414_63575"><path fill="#fff" d="M0 0h991.45v340H0z" transform="translate(-250)"/></clipPath><clipPath id="clip2_2414_63575"><path fill="#fff" d="M0 0h1001.83v340H0z" transform="translate(-260.381)"/></clipPath></defs></svg>
